<?xml version="1.0" standalone="no"?>
<!DOCTYPE svg PUBLIC "-//W3C//DTD SVG 20010904//EN"
 "http://www.w3.org/TR/2001/REC-SVG-20010904/DTD/svg10.dtd">
<svg version="1.0" xmlns="http://www.w3.org/2000/svg"
 width="1280.000000pt" height="1280.000000pt" viewBox="0 0 1280.000000 1280.000000"
 preserveAspectRatio="xMidYMid meet">
<metadata>
Created by potrace 1.14, written by Peter Selinger 2001-2017
</metadata>
<g transform="translate(0.000000,1280.000000) scale(0.100000,-0.100000)"
fill="#000000" stroke="none">
<path d="M3740 10865 c-294 -50 -569 -193 -778 -403 -181 -183 -311 -425 -379
-705 -17 -68 -18 -282 -20 -3955 l-3 -3884 137 6 c76 3 149 8 162 11 13 2 49
7 80 10 31 4 88 13 126 20 39 8 84 17 100 19 65 12 276 76 375 116 199 79 455
230 532 314 10 10 18 16 18 13 0 -16 158 160 205 229 30 43 59 85 66 92 17 20
65 130 89 207 19 57 24 100 28 237 l4 168 2202 3 c2061 2 2206 4 2273 20 126
31 224 66 338 121 388 189 653 530 762 979 16 67 18 197 23 1782 l5 1710 33
53 c17 29 32 55 32 58 0 3 9 25 20 48 11 24 30 79 42 122 23 79 23 81 23 744
0 598 -2 673 -18 747 -27 124 -63 227 -121 348 -189 388 -529 653 -979 762
-68 16 -227 18 -2687 19 -2082 2 -2630 -1 -2690 -11z"/>
</g>
</svg>
